<svg width="64" height="67" viewBox="0 0 64 67" fill="none" xmlns="http://www.w3.org/2000/svg">
<path d="M18.714 0.903653C18.8024 0.624356 19.1976 0.624355 19.286 0.903652L23.5209 14.2836C23.5504 14.3767 23.6233 14.4496 23.7164 14.4791L37.0963 18.714C37.3756 18.8024 37.3756 19.1976 37.0963 19.286L23.7164 23.5209C23.6233 23.5504 23.5504 23.6233 23.5209 23.7164L19.286 37.0963C19.1976 37.3756 18.8024 37.3756 18.714 37.0963L14.4791 23.7164C14.4496 23.6233 14.3767 23.5504 14.2836 23.5209L0.903653 19.286C0.624356 19.1976 0.624355 18.8024 0.903652 18.714L14.2836 14.4791C14.3767 14.4496 14.4496 14.3767 14.4791 14.2836L18.714 0.903653Z" fill="url(#paint0_linear_1_678)"/>
<path d="M25.214 42.9037C25.3024 42.6244 25.6976 42.6244 25.786 42.9037L28.4582 51.3463C28.4877 51.4394 28.5606 51.5123 28.6537 51.5418L37.0963 54.214C37.3756 54.3024 37.3756 54.6976 37.0963 54.786L28.6537 57.4582C28.5606 57.4877 28.4877 57.5606 28.4582 57.6537L25.786 66.0963C25.6976 66.3756 25.3024 66.3756 25.214 66.0963L22.5418 57.6537C22.5123 57.5606 22.4394 57.4877 22.3463 57.4582L13.9037 54.786C13.6244 54.6976 13.6244 54.3024 13.9037 54.214L22.3463 51.5418C22.4394 51.5123 22.5123 51.4394 22.5418 51.3463L25.214 42.9037Z" fill="url(#paint1_linear_1_678)"/>
<path d="M49.714 21.9037C49.8024 21.6244 50.1976 21.6244 50.286 21.9037L53.3188 31.4857C53.3483 31.5788 53.4212 31.6517 53.5143 31.6812L63.0963 34.714C63.3756 34.8024 63.3756 35.1976 63.0963 35.286L53.5143 38.3188C53.4212 38.3483 53.3483 38.4212 53.3188 38.5143L50.286 48.0963C50.1976 48.3756 49.8024 48.3756 49.714 48.0963L46.6812 38.5143C46.6517 38.4212 46.5788 38.3483 46.4857 38.3188L36.9037 35.286C36.6244 35.1976 36.6244 34.8024 36.9037 34.714L46.4857 31.6812C46.5788 31.6517 46.6517 31.5788 46.6812 31.4857L49.714 21.9037Z" fill="url(#paint2_linear_1_678)"/>
<defs>
<linearGradient id="paint0_linear_1_678" x1="19" y1="0" x2="19" y2="38" gradientUnits="userSpaceOnUse">
<stop stop-color="#2EB1FA"/>
<stop offset="1" stop-color="#1B6994"/>
</linearGradient>
<linearGradient id="paint1_linear_1_678" x1="25.5" y1="42" x2="25.5" y2="67" gradientUnits="userSpaceOnUse">
<stop stop-color="#2EB1FA"/>
<stop offset="1" stop-color="#1B6994"/>
</linearGradient>
<linearGradient id="paint2_linear_1_678" x1="50" y1="21" x2="50" y2="49" gradientUnits="userSpaceOnUse">
<stop stop-color="#2EB1FA"/>
<stop offset="1" stop-color="#1B6994"/>
</linearGradient>
</defs>
</svg>
